<?xml version="1.0" encoding="utf-8"?>
<!-- Generator: Adobe Illustrator 16.0.0, SVG Export Plug-In . SVG Version: 6.00 Build 0)  -->
<!DOCTYPE svg PUBLIC "-//W3C//DTD SVG 1.1//EN" "http://www.w3.org/Graphics/SVG/1.1/DTD/svg11.dtd">
<svg version="1.1" id="圖層_1" xmlns="http://www.w3.org/2000/svg" xmlns:xlink="http://www.w3.org/1999/xlink" x="0px" y="0px"
	 width="30px" height="30px" viewBox="11 11 30 30" enable-background="new 11 11 30 30" xml:space="preserve">
<g>
	<path fill="#FFFFFF" d="M16.553,25.309l14.005-14.007C30.739,11.12,31.011,11,31.25,11c0.24,0,0.515,0.122,0.691,0.302l1.505,1.501
		c0.181,0.183,0.304,0.421,0.304,0.693c0,0.239-0.124,0.51-0.304,0.691L21.63,25.998l11.815,11.813
		c0.18,0.18,0.301,0.45,0.301,0.691c0,0.239-0.122,0.508-0.301,0.692l-1.504,1.5C31.76,40.878,31.487,41,31.249,41
		c-0.242,0-0.509-0.122-0.69-0.305L16.551,26.691C16.37,26.511,16.248,26.24,16.248,26S16.371,25.486,16.553,25.309z"/>
</g>
</svg>
