<?xml version="1.0" encoding="utf-8"?>
<!-- Generator: Adobe Illustrator 16.0.0, SVG Export Plug-In . SVG Version: 6.00 Build 0)  -->
<!DOCTYPE svg PUBLIC "-//W3C//DTD SVG 1.1//EN" "http://www.w3.org/Graphics/SVG/1.1/DTD/svg11.dtd">
<svg version="1.1" id="圖層_1" xmlns="http://www.w3.org/2000/svg" xmlns:xlink="http://www.w3.org/1999/xlink" x="0px" y="0px"
	 width="30px" height="30px" viewBox="11 11 30 30" enable-background="new 11 11 30 30" xml:space="preserve">
<g>
	<path fill="#FFFFFF" d="M33.444,26.691L19.442,40.698C19.26,40.879,18.991,41,18.75,41c-0.24,0-0.512-0.124-0.691-0.302
		l-1.504-1.504c-0.18-0.182-0.303-0.421-0.303-0.69c0-0.24,0.122-0.511,0.303-0.691l11.814-11.813L16.554,14.187
		c-0.18-0.18-0.303-0.451-0.303-0.692c0-0.24,0.122-0.509,0.303-0.691l1.504-1.501C18.238,11.12,18.51,11,18.75,11
		c0.241,0,0.509,0.122,0.692,0.302l14.002,14.003c0.182,0.18,0.302,0.451,0.302,0.691C33.745,26.235,33.626,26.511,33.444,26.691z"
		/>
</g>
</svg>
